#!OML:ASF X:\für Bonn\!DataBase\2005_08_12_Daniel\c3d\Daniel.ASF
:FULLY-SPECIFIED
:DEGREES
16
root 19.2886 16.8744 0.529139 -730.116 -66.8647 727.381
lowerback 13.4932 -2.79338 -0.191013
upperback 2.76832 -3.98751 -3.00977
thorax -4.83926 -2.02233 -2.3506
lowerneck 3.62456 2.8032 -0.964993
upperneck -0.327039 3.69118 0.234378
head -0.717112 1.8411 0.16758
rclavicle 6.26172e-015 -1.27222e-014
rhumerus -45.6398 17.6279 -105.911
rradius 59.1243
rwrist 5.62707
rhand -20.6466 18.9836
rfingers 7.12502
rthumb 5.71558 -10.9194
lclavicle 6.26172e-015 -1.27222e-014
lhumerus -40.9197 5.44144 82.269
lradius 118.863
lwrist 198.794
lhand -11.8749 16.8722
lfingers 7.12502
lthumb 14.1776 46.3684
rfemur -21.8084 3.3909 10.5221
rtibia 46.4205
rfoot -24.0923 4.68118
rtoes -14.3533
lfemur -5.23888 -15.6617 -28.2752
ltibia 42.3189
lfoot -36.2809 8.8559
ltoes -12.9604
17
root 19.2759 16.8725 0.535147 -730.211 -66.78 727.483
lowerback 13.3249 -2.69799 -0.294443
upperback 2.81049 -3.87644 -3.07564
thorax -4.69565 -1.96733 -2.38985
lowerneck 3.76971 2.4605 -1.26445
upperneck -0.287504 3.22603 0.719713
head -0.74156 1.60336 0.371238
rclavicle 1.91827e-014 1.03368e-014
rhumerus -45.5002 18.0323 -105.981
rradius 59.1411
rwrist 5.44779
rhand -20.5983 19.2311
rfingers 7.12502
rthumb 5.76222 -10.6705
lclavicle 1.91827e-014 1.03368e-014
lhumerus -40.9052 5.41773 82.411
lradius 118.746
lwrist 198.828
lhand -12.0529 16.883
lfingers 7.12502
lthumb 14.006 46.3912
rfemur -21.7898 3.24367 10.4637
rtibia 46.5038
rfoot -24.1147 4.69842
rtoes -14.6338
lfemur -5.18851 -15.5853 -28.3038
ltibia 42.3105
lfoot -36.3054 8.67462
ltoes -12.9082
18
root 19.2634 16.8695 0.540973 -730.282 -66.6875 727.545
lowerback 13.1971 -2.61041 -0.390581
upperback 2.83738 -3.77446 -3.13139
thorax -4.59059 -1.9167 -2.41823
lowerneck 3.94638 2.11609 -1.53919
upperneck -0.248672 2.7577 1.16717
head -0.76731 1.36394 0.561163
rclavicle -9.24349e-015 2.06736e-014
rhumerus -45.4279 18.393 -106.035
rradius 59.2121
rwrist 5.28227
rhand -20.5827 19.4129
rfingers 7.12502
rthumb 5.77727 -10.4883
lclavicle -9.24349e-015 2.06736e-014
lhumerus -40.9626 5.37913 82.5826
lradius 118.662
lwrist 198.738
lhand -12.1792 16.9426
lfingers 7.12502
lthumb 13.8843 46.4592
rfemur -21.7757 2.9713 10.4147
rtibia 46.6102
rfoot -24.1173 4.81332
rtoes -14.8998
lfemur -5.13452 -15.4771 -28.3107
ltibia 42.3077
lfoot -36.3043 8.491
ltoes -12.891
19
root 19.2507 16.8653 0.545976 -730.413 -66.5895 727.669
lowerback 13.0847 -2.52953 -0.513184
upperback 2.86527 -3.68573 -3.19809
thorax -4.49276 -1.87248 -2.43987
lowerneck 4.12417 1.78918 -1.82842
upperneck -0.217886 2.31122 1.62352
head -0.793489 1.13499 0.758162
rclavicle -7.95139e-014 2.70347e-014
rhumerus -45.3428 18.742 -106.086
rradius 59.269
rwrist 5.06613
rhand -20.5168 19.5467
rfingers 7.12502
rthumb 5.84092 -10.3528
lclavicle -7.95139e-014 2.70347e-014
lhumerus -41.022 5.33941 82.7353
lradius 118.581
lwrist 198.605
lhand -12.3304 16.8778
lfingers 7.12502
lthumb 13.7386 46.4043
rfemur -21.7856 2.65444 10.3294
rtibia 46.7587
rfoot -24.0934 5.00735
rtoes -14.9801
lfemur -5.07303 -15.3824 -28.3482
ltibia 42.3026
lfoot -36.3151 8.31456
ltoes -12.9179
20
root 19.2381 16.8591 0.54987 -730.583 -66.4715 727.847
lowerback 12.9777 -2.4515 -0.664541
upperback 2.89579 -3.60503 -3.27494
thorax -4.3945 -1.83214 -2.45408
lowerneck 4.2662 1.46198 -2.08972
upperneck -0.174824 1.86513 2.0711
head -0.806206 0.906103 0.950282
rclavicle 2.94201e-014 1.19271e-014
rhumerus -45.244 19.0634 -106.131
rradius 59.3142
rwrist 4.84781
rhand -20.5027 19.6212
rfingers 7.12502
rthumb 5.85451 -10.278
lclavicle 2.94201e-014 1.19271e-014
lhumerus -41.0566 5.24855 82.8797
lradius 118.494
lwrist 198.469
lhand -12.4524 16.7413
lfingers 7.12502
lthumb 13.621 46.2757
rfemur -21.8328 2.2142 10.2159
rtibia 46.9497
rfoot -24.0518 5.27735
rtoes -15.1221
lfemur -5.03918 -15.2837 -28.3988
ltibia 42.3138
lfoot -36.3291 8.10837
ltoes -12.9101
21
root 19.2236 16.8529 0.553976 -730.8 -66.3497 728.09
lowerback 12.8532 -2.37671 -0.865095
upperback 2.92244 -3.53345 -3.34049
thorax -4.28766 -1.79575 -2.42747
lowerneck 4.40015 1.15335 -2.41287
upperneck -0.11539 1.43992 2.54412
head -0.810919 0.68717 1.16274
rclavicle 9.80008e-014 1.27222e-014
rhumerus -45.1505 19.3832 -106.141
rradius 59.3545
rwrist 4.68003
rhand -20.5019 19.6692
rfingers 7.12502
rthumb 5.85523 -10.2299
lclavicle 9.80008e-014 1.27222e-014
lhumerus -41.1 5.19784 83.0606
lradius 118.398
lwrist 198.307
lhand -12.6073 16.5435
lfingers 7.12502
lthumb 13.4717 46.0878
rfemur -21.9217 1.68581 10.0659
rtibia 47.1858
rfoot -23.9878 5.60294
rtoes -15.2118
lfemur -5.01081 -15.189 -28.4786
ltibia 42.3268
lfoot -36.345 7.91591
ltoes -12.9916
22
root 19.2087 16.8462 0.556864 -731.098 -66.1936 728.413
lowerback 12.7428 -2.30476 -1.11305
upperback 2.96099 -3.47189 -3.41148
thorax -4.17431 -1.76424 -2.37762
lowerneck 4.49649 0.840961 -2.7249
upperneck -0.0405339 1.00942 2.99716
head -0.800517 0.465879 1.36934
rclavicle -1.28216e-014 2.54444e-014
rhumerus -44.9873 19.6219 -106.095
rradius 59.327
rwrist 4.60242
rhand -20.547 19.6807
rfingers 7.12502
rthumb 5.81174 -10.2196
lclavicle -1.28216e-014 2.54444e-014
lhumerus -41.1169 5.09756 83.2543
lradius 118.289
lwrist 198.19
lhand -12.7165 16.2701
lfingers 7.12502
lthumb 13.3665 45.8213
rfemur -22.0142 1.14717 9.87448
rtibia 47.4578
rfoot -23.9573 5.93208
rtoes -15.342
lfemur -4.99024 -15.0681 -28.5825
ltibia 42.351
lfoot -36.3554 7.67468
ltoes -13.0606
23
root 19.1929 16.8382 0.559796 -731.33 -66.0407 728.674
lowerback 12.6427 -2.24645 -1.33657
upperback 2.98309 -3.42485 -3.48125
thorax -4.08606 -1.74015 -2.33694
lowerneck 4.63614 0.543856 -3.00801
upperneck 0.0150763 0.598615 3.42596
head -0.800402 0.254094 1.56481
rclavicle 6.56983e-014 -2.78299e-014
rhumerus -44.8034 19.7764 -106.041
rradius 59.2349
rwrist 4.64417
rhand -20.5783 19.7073
rfingers 7.12502
rthumb 5.78147 -10.1938
lclavicle 6.56983e-014 -2.78299e-014
lhumerus -41.1481 4.99002 83.426
lradius 118.161
lwrist 198.069
lhand -12.8015 15.9189
lfingers 7.12502
lthumb 13.2845 45.4755
rfemur -22.1261 0.586837 9.71297
rtibia 47.7541
rfoot -23.9312 6.23721
rtoes -15.5046
lfemur -4.97347 -14.9568 -28.663
ltibia 42.3879
lfoot -36.3752 7.45993
ltoes -13.1853
24
root 19.1759 16.8304 0.561384 -731.562 -65.8881 728.926
lowerback 12.5607 -2.18862 -1.57206
upperback 3.00276 -3.3803 -3.55276
thorax -4.00999 -1.71734 -2.2901
lowerneck 4.76712 0.253888 -3.25165
upperneck 0.0871112 0.197746 3.83084
head -0.790568 0.047324 1.74709
rclavicle -4.57205e-015 -4.77083e-015
rhumerus -44.6512 19.8916 -105.97
rradius 59.1865
rwrist 4.77183
rhand -20.6017 19.7176
rfingers 7.12502
rthumb 5.75895 -10.1842
lclavicle -4.57205e-015 -4.77083e-015
lhumerus -41.1868 4.82215 83.5801
lradius 118.022
lwrist 197.974
lhand -12.8348 15.5318
lfingers 7.12502
lthumb 13.2524 45.0905
rfemur -22.2462 0.0274553 9.56285
rtibia 48.0783
rfoot -23.9567 6.52385
rtoes -15.5942
lfemur -4.95867 -14.8678 -28.7404
ltibia 42.4439
lfoot -36.4041 7.25328
ltoes -13.2113
25
root 19.1585 16.8219 0.56229 -731.686 -65.7356 729.054
lowerback 12.5105 -2.14428 -1.7596
upperback 3.01369 -3.34748 -3.61159
thorax -3.96298 -1.70051 -2.25361
lowerneck 4.86684 -0.0242536 -3.50903
upperneck 0.219631 -0.190161 4.2481
head -0.75411 -0.153044 1.93656
rclavicle -1.01181e-013 -1.11319e-014
rhumerus -44.5394 20.0216 -105.898
rradius 59.2
rwrist 4.88096
rhand -20.6268 19.6513
rfingers 7.12502
rthumb 5.73472 -10.2511
lclavicle -1.01181e-013 -1.11319e-014
lhumerus -41.2202 4.64317 83.7419
lradius 117.859
lwrist 197.892
lhand -12.8503 15.112
lfingers 7.12502
lthumb 13.2375 44.6717
rfemur -22.3658 -0.514408 9.47001
rtibia 48.418
rfoot -23.9358 6.75664
rtoes -15.5403
lfemur -4.95156 -14.7403 -28.7501
ltibia 42.5255
lfoot -36.4342 7.01387
ltoes -13.3511
26
root 19.1397 16.8122 0.563089 -731.754 -65.5927 729.123
lowerback 12.4629 -2.1093 -1.93757
upperback 3.02456 -3.32445 -3.65185
thorax -3.9173 -1.68846 -2.20138
lowerneck 4.96364 -0.285662 -3.77402
upperneck 0.341908 -0.557316 4.64654
head -0.718318 -0.342874 2.12225
rclavicle 1.2921e-015 0
rhumerus -44.4102 20.1586 -105.785
rradius 59.209
rwrist 5.04264
rhand -20.6404 19.5682
rfingers 7.12502
rthumb 5.72159 -10.3346
lclavicle 1.2921e-015 0
lhumerus -41.2566 4.49234 83.919
lradius 117.679
lwrist 197.81
lhand -12.8754 14.7421
lfingers 7.12502
lthumb 13.2133 44.3034
rfemur -22.5115 -1.10306 9.40977
rtibia 48.79
rfoot -23.8235 6.98346
rtoes -15.4172
lfemur -4.95212 -14.6147 -28.7316
ltibia 42.6292
lfoot -36.4777 6.77311
ltoes -13.4014
27
root 19.1199 16.8025 0.563131 -731.798 -65.4404 729.156
lowerback 12.432 -2.08502 -2.12594
upperback 3.04384 -3.31628 -3.6768
thorax -3.87086 -1.68369 -2.12451
lowerneck 5.00025 -0.531458 -4.01271
upperneck 0.501594 -0.903128 5.00867
head -0.658523 -0.520891 2.29109
rclavicle -8.0309e-014 -4.21423e-014
rhumerus -44.2501 20.2407 -105.632
rradius 59.2006
rwrist 5.2401
rhand -20.5825 19.5149
rfingers 7.12502
rthumb 5.77744 -10.3863
lclavicle -8.0309e-014 -4.21423e-014
lhumerus -41.2962 4.37378 84.1244
lradius 117.51
lwrist 197.691
lhand -12.9379 14.4697
lfingers 7.12502
lthumb 13.153 44.0348
rfemur -22.6607 -1.71677 9.36769
rtibia 49.1885
rfoot -23.7074 7.18953
rtoes -15.2507
lfemur -4.95386 -14.4952 -28.7009
ltibia 42.7546
lfoot -36.522 6.57137
ltoes -13.5533
28
root 19.099 16.7918 0.562618 -731.817 -65.297 729.16
lowerback 12.4167 -2.06579 -2.28566
upperback 3.05102 -3.31337 -3.72273
thorax -3.84874 -1.68178 -2.08409
lowerneck 5.06066 -0.770011 -4.21202
upperneck 0.682449 -1.24026 5.37664
head -0.5942 -0.69508 2.45534
rclavicle 9.0447e-015 -4.69132e-014
rhumerus -44.0966 20.2022 -105.483
rradius 59.1681
rwrist 5.53672
rhand -20.5019 19.4577
rfingers 7.12502
rthumb 5.85524 -10.4414
lclavicle 9.0447e-015 -4.69132e-014
lhumerus -41.3849 4.22128 84.3012
lradius 117.341
lwrist 197.603
lhand -12.9698 14.2469
lfingers 7.12502
lthumb 13.1223 43.814
rfemur -22.8334 -2.34258 9.3449
rtibia 49.6268
rfoot -23.5838 7.3606
rtoes -15.0564
lfemur -4.95168 -14.3848 -28.6511
ltibia 42.8932
lfoot -36.5924 6.32251
ltoes -13.5967
